<svg width="12" height="12" viewBox="0 0 12 12" fill="none" xmlns="http://www.w3.org/2000/svg">
<path d="M2.5 6C2.36739 6 2.24021 6.05268 2.14645 6.14645C2.05268 6.24021 2 6.36739 2 6.5V10.5C2 10.6326 2.05268 10.7598 2.14645 10.8536C2.24021 10.9473 2.36739 11 2.5 11C2.63261 11 2.75979 10.9473 2.85355 10.8536C2.94732 10.7598 3 10.6326 3 10.5V6.5C3 6.36739 2.94732 6.24021 2.85355 6.14645C2.75979 6.05268 2.63261 6 2.5 6ZM5 1C4.86739 1 4.74021 1.05268 4.64645 1.14645C4.55268 1.24021 4.5 1.36739 4.5 1.5V10.5C4.5 10.6326 4.55268 10.7598 4.64645 10.8536C4.74021 10.9473 4.86739 11 5 11C5.13261 11 5.25979 10.9473 5.35355 10.8536C5.44732 10.7598 5.5 10.6326 5.5 10.5V1.5C5.5 1.36739 5.44732 1.24021 5.35355 1.14645C5.25979 1.05268 5.13261 1 5 1ZM10 8C9.86739 8 9.74021 8.05268 9.64645 8.14645C9.55268 8.24021 9.5 8.36739 9.5 8.5V10.5C9.5 10.6326 9.55268 10.7598 9.64645 10.8536C9.74021 10.9473 9.86739 11 10 11C10.1326 11 10.2598 10.9473 10.3536 10.8536C10.4473 10.7598 10.5 10.6326 10.5 10.5V8.5C10.5 8.36739 10.4473 8.24021 10.3536 8.14645C10.2598 8.05268 10.1326 8 10 8ZM7.5 4C7.36739 4 7.24021 4.05268 7.14645 4.14645C7.05268 4.24021 7 4.36739 7 4.5V10.5C7 10.6326 7.05268 10.7598 7.14645 10.8536C7.24021 10.9473 7.36739 11 7.5 11C7.63261 11 7.75979 10.9473 7.85355 10.8536C7.94732 10.7598 8 10.6326 8 10.5V4.5C8 4.36739 7.94732 4.24021 7.85355 4.14645C7.75979 4.05268 7.63261 4 7.5 4Z" fill="#483939" fill-opacity="0.8"/>
</svg>
